<svg xmlns="http://www.w3.org/2000/svg" xmlns:xlink="http://www.w3.org/1999/xlink" version="1.1" x="0px" y="0px" viewBox="15 15 70 70" enable-background="new 0 0 100 100" xml:space="preserve"><g><path fill="transparent" d="M25.197,34.876h49.605c1.048,0,2.012,0.353,2.805,0.937c-0.197-1.92-1.395-3.455-2.805-3.455H44.549   c-1.935,0-2.838-1.331-3.563-2.4c-0.809-1.191-1.377-1.922-2.808-1.922h-12.98c-1.543,0-2.846,1.832-2.846,4v3.812   C23.152,35.243,24.131,34.876,25.197,34.876z"/><path fill='white' d="M74.803,30.357H44.549c-0.836,0-1.229-0.522-1.908-1.523c-0.802-1.182-1.9-2.799-4.463-2.799h-12.98   c-2.672,0-4.846,2.691-4.846,6v7.829v0.743v28.369c0,2.751,2.174,4.988,4.846,4.988h49.605c2.672,0,4.846-2.237,4.846-4.988V40.67   v-0.806v-3.507C79.648,33.049,77.475,30.357,74.803,30.357z M77.648,40.67v28.307c0,1.647-1.276,2.988-2.846,2.988H25.197   c-1.569,0-2.846-1.341-2.846-2.988V40.607v-0.743c0-1.647,1.276-2.988,2.846-2.988h49.605c1.569,0,2.846,1.341,2.846,2.988V40.67z    M25.197,28.035h12.98c1.431,0,1.999,0.73,2.808,1.922c0.726,1.069,1.629,2.4,3.563,2.4h30.254c1.41,0,2.607,1.535,2.805,3.455   c-0.793-0.584-1.757-0.937-2.805-0.937H25.197c-1.066,0-2.045,0.367-2.846,0.971v-3.812C22.352,29.867,23.654,28.035,25.197,28.035   z"/></g><g><g><line fill="black" stroke="#fff" stroke-width="2" stroke-miterlimit="10" x1="42.305" y1="43.74" x2="42.305" y2="48.869"/><line fill="black" stroke="#fff" stroke-width="2" stroke-miterlimit="10" x1="57.695" y1="43.74" x2="57.695" y2="48.869"/><path fill="transparent" stroke="#fff" stroke-width="2" stroke-miterlimit="10" d="M57.695,64.26c0-4.25-3.445-7.693-7.695-7.693    s-7.695,3.443-7.695,7.693"/></g></g></svg>